<svg xmlns="http://www.w3.org/2000/svg" version="1.1" xmlns:xlink="http://www.w3.org/1999/xlink" xmlns:svgjs="http://svgjs.dev/svgjs" width="1000" height="623" viewBox="0 0 1000 623"><g transform="matrix(1,0,0,1,-0.6060606060605664,0.2522267206477409)"><svg viewBox="0 0 396 247" data-background-color="#046380" preserveAspectRatio="xMidYMid meet" height="623" width="1000" xmlns="http://www.w3.org/2000/svg" xmlns:xlink="http://www.w3.org/1999/xlink"><g id="tight-bounds" transform="matrix(1,0,0,1,0.2400000000000091,-0.09999999999999432)"><svg viewBox="0 0 395.52 247.2" height="247.2" width="395.52"><g><svg></svg></g><g><svg viewBox="0 0 395.52 247.2" height="247.2" width="395.52"><g transform="matrix(1,0,0,1,75.54432,76.68180682605112)"><svg viewBox="0 0 244.43135999999998 93.83638634789777" height="93.83638634789777" width="244.43135999999998"><g><svg viewBox="0 0 244.43135999999998 93.83638634789777" height="93.83638634789777" width="244.43135999999998"><g><svg viewBox="0 0 244.43135999999998 93.83638634789777" height="93.83638634789777" width="244.43135999999998"><g><svg viewBox="0 0 244.43135999999998 93.83638634789777" height="93.83638634789777" width="244.43135999999998"><g id="textblocktransform"><svg viewBox="0 0 244.43135999999998 93.83638634789777" height="93.83638634789777" width="244.43135999999998" id="textblock"><g><svg viewBox="0 0 244.43135999999998 93.83638634789777" height="93.83638634789777" width="244.43135999999998"><g transform="matrix(1,0,0,1,0,0)"><svg width="244.43135999999998" viewBox="2.799999952316284 -47 181.94000244140625 69.8499984741211" height="93.83638634789777" data-palette-color="#ffffff"><path d="M15 0.25Q11.55 0.25 8.78-1.45 6-3.15 4.4-6.38 2.8-9.6 2.8-14L2.8-14Q2.8-21.6 6.05-28.08 9.3-34.55 15.65-38.48 22-42.4 30.9-42.4L30.9-42.4Q33.2-42.4 35.83-42.05 38.45-41.7 40.6-41L40.6-41Q42-40.6 42-39L42-39Q42-37.7 41.03-36.55 40.05-35.4 38.75-35.4L38.75-35.4Q38.35-35.4 38.15-35.45L38.15-35.45Q35.55-36.05 33.7-36.33 31.85-36.6 29.8-36.6L29.8-36.6Q23.45-36.6 19-33.52 14.55-30.45 12.35-25.4 10.15-20.35 10.15-14.5L10.15-14.5Q10.15-10.25 11.83-7.93 13.5-5.6 16.2-5.6L16.2-5.6Q19.25-5.6 21.55-8.1 23.85-10.6 25.75-16.2 27.65-21.8 29.5-31.4L29.5-31.4Q29.8-32.8 30.7-33.3 31.6-33.8 33.1-33.8L33.1-33.8Q36.65-33.8 36.65-31.5L36.65-31.5Q36.65-31.1 36.5-30.5L36.5-30.5Q35.2-25.65 34.13-19.78 33.05-13.9 33.05-10.85L33.05-10.85Q33.05-8.15 33.85-6.93 34.65-5.7 36.3-5.7L36.3-5.7Q37.9-5.7 39.35-6.78 40.8-7.85 43-10.45L43-10.45Q43.6-11.15 44.35-11.15L44.35-11.15Q45-11.15 45.38-10.55 45.75-9.95 45.75-8.9L45.75-8.9Q45.75-6.95 44.8-5.8L44.8-5.8Q42.35-2.85 40-1.3 37.65 0.25 34.25 0.25L34.25 0.25Q30.75 0.25 28.6-1.78 26.45-3.8 25.9-7.5L25.9-7.5Q22.2 0.25 15 0.25L15 0.25ZM45.25 0.25Q43.35 0.25 42.57-1.75 41.8-3.75 41.8-8.15L41.8-8.15Q41.8-14.65 43.65-20.5L43.65-20.5Q44.1-21.95 45.12-22.63 46.15-23.3 48-23.3L48-23.3Q49-23.3 49.4-23.05 49.8-22.8 49.8-22.1L49.8-22.1Q49.8-21.3 49.05-18.5L49.05-18.5Q48.55-16.5 48.25-15 47.95-13.5 47.75-11.3L47.75-11.3Q49.4-15.6 51.45-18.3 53.5-21 55.47-22.15 57.45-23.3 59.1-23.3L59.1-23.3Q62.35-23.3 62.35-20.05L62.35-20.05Q62.35-19.4 61.9-16.9L61.9-16.9Q61.5-14.9 61.5-14.4L61.5-14.4Q61.5-12.65 62.75-12.65L62.75-12.65Q64.15-12.65 66.35-14.85L66.35-14.85Q67-15.5 67.7-15.5L67.7-15.5Q68.35-15.5 68.72-14.93 69.1-14.35 69.1-13.4L69.1-13.4Q69.1-11.55 68.1-10.5L68.1-10.5Q66.7-9.05 64.82-8.03 62.95-7 60.85-7L60.85-7Q58.2-7 56.82-8.35 55.45-9.7 55.45-12L55.45-12Q55.45-12.75 55.6-13.5L55.6-13.5Q55.7-14.5 55.7-14.85L55.7-14.85Q55.7-15.65 55.15-15.65L55.15-15.65Q54.4-15.65 53.17-13.98 51.95-12.3 50.75-9.55 49.55-6.8 48.8-3.75L48.8-3.75Q48.25-1.4 47.52-0.58 46.8 0.25 45.25 0.25L45.25 0.25ZM88.25-11.15Q88.9-11.15 89.27-10.55 89.65-9.95 89.65-8.9L89.65-8.9Q89.65-6.9 88.7-5.8L88.7-5.8Q86.55-3.15 84-1.45 81.45 0.25 78.15 0.25L78.15 0.25Q67.95 0.25 67.95-14.1L67.95-14.1Q67.95-16.3 68.1-18.55L68.1-18.55 66.15-18.55Q64.65-18.55 64.12-19.1 63.6-19.65 63.6-20.85L63.6-20.85Q63.6-23.65 65.85-23.65L65.85-23.65 68.7-23.65Q69.55-29.15 71.3-33.7 73.05-38.25 75.52-40.95 78-43.65 80.85-43.65L80.85-43.65Q82.95-43.65 84.15-41.8 85.35-39.95 85.35-37.15L85.35-37.15Q85.35-29.4 78.85-23.65L78.85-23.65 84.45-23.65Q85.25-23.65 85.6-23.3 85.95-22.95 85.95-22L85.95-22Q85.95-18.55 80.3-18.55L80.3-18.55 74.2-18.55Q74.1-16.05 74.1-14.65L74.1-14.65Q74.1-9.45 75.32-7.35 76.55-5.25 79.2-5.25L79.2-5.25Q81.35-5.25 83-6.55 84.65-7.85 86.9-10.45L86.9-10.45Q87.5-11.15 88.25-11.15L88.25-11.15ZM79.5-38.85Q78.75-38.85 77.82-36.98 76.9-35.1 76.07-31.78 75.25-28.45 74.7-24.4L74.7-24.4Q77.65-26.95 79.12-30.13 80.6-33.3 80.6-35.9L80.6-35.9Q80.6-38.85 79.5-38.85L79.5-38.85ZM113.99-11.15Q114.64-11.15 115.02-10.55 115.39-9.95 115.39-8.9L115.39-8.9Q115.39-6.9 114.44-5.8L114.44-5.8Q112.39-3.3 109.94-1.53 107.49 0.25 105.09 0.25L105.09 0.25Q101.29 0.25 99.29-4.2L99.29-4.2Q97.19-1.55 95.62-0.65 94.04 0.25 91.94 0.25L91.94 0.25Q88.89 0.25 86.92-2.02 84.94-4.3 84.94-7.95L84.94-7.95Q84.94-11.95 86.64-15.38 88.34-18.8 91.32-20.98 94.29-23.15 97.99-23.55L97.99-23.55Q98.94-33.25 101.62-40.13 104.29-47 108.64-47L108.64-47Q110.79-47 112.22-45.05 113.64-43.1 113.64-39.15L113.64-39.15Q113.64-33.55 110.89-26.05 108.14-18.55 103.54-10.65L103.54-10.65Q103.74-7.75 104.42-6.5 105.09-5.25 106.14-5.25L106.14-5.25Q107.49-5.25 108.89-6.45 110.29-7.65 112.64-10.45L112.64-10.45Q113.24-11.15 113.99-11.15L113.99-11.15ZM108.09-42.1Q107.14-42.1 106.19-38.73 105.24-35.35 104.57-29.9 103.89-24.45 103.59-18.5L103.59-18.5Q109.19-30.7 109.19-38.1L109.19-38.1Q109.19-40 108.87-41.05 108.54-42.1 108.09-42.1L108.09-42.1ZM93.69-4.8Q94.64-4.8 95.59-5.58 96.54-6.35 97.99-8.45L97.99-8.45Q97.49-11.15 97.49-14.5L97.49-14.5Q97.49-15.7 97.59-18.4L97.59-18.4Q94.84-17.55 93.02-14.73 91.19-11.9 91.19-8.45L91.19-8.45Q91.19-4.8 93.69-4.8L93.69-4.8ZM114.89 0.25Q112.99 0.25 112.22-1.75 111.44-3.75 111.44-8.15L111.44-8.15Q111.44-14.65 113.29-20.5L113.29-20.5Q113.74-21.95 114.77-22.63 115.79-23.3 117.64-23.3L117.64-23.3Q118.64-23.3 119.04-23.05 119.44-22.8 119.44-22.1L119.44-22.1Q119.44-21.3 118.69-18.5L118.69-18.5Q118.19-16.5 117.89-15 117.59-13.5 117.39-11.3L117.39-11.3Q119.04-15.6 121.09-18.3 123.14-21 125.12-22.15 127.09-23.3 128.74-23.3L128.74-23.3Q131.99-23.3 131.99-20.05L131.99-20.05Q131.99-19.4 131.54-16.9L131.54-16.9Q131.14-14.9 131.14-14.4L131.14-14.4Q131.14-12.65 132.39-12.65L132.39-12.65Q133.79-12.65 135.99-14.85L135.99-14.85Q136.64-15.5 137.34-15.5L137.34-15.5Q137.99-15.5 138.37-14.93 138.74-14.35 138.74-13.4L138.74-13.4Q138.74-11.55 137.74-10.5L137.74-10.5Q136.34-9.05 134.47-8.03 132.59-7 130.49-7L130.49-7Q127.84-7 126.47-8.35 125.09-9.7 125.09-12L125.09-12Q125.09-12.75 125.24-13.5L125.24-13.5Q125.34-14.5 125.34-14.85L125.34-14.85Q125.34-15.65 124.79-15.65L124.79-15.65Q124.04-15.65 122.82-13.98 121.59-12.3 120.39-9.55 119.19-6.8 118.44-3.75L118.44-3.75Q117.89-1.4 117.17-0.58 116.44 0.25 114.89 0.25L114.89 0.25ZM159.59-15.35Q160.24-15.35 160.59-14.7 160.94-14.05 160.94-13.05L160.94-13.05Q160.94-10.65 159.49-10.2L159.49-10.2Q156.49-9.15 152.89-9L152.89-9Q151.94-4.8 149.14-2.27 146.34 0.25 142.79 0.25L142.79 0.25Q139.79 0.25 137.66-1.2 135.54-2.65 134.44-5.05 133.34-7.45 133.34-10.25L133.34-10.25Q133.34-14.05 134.79-17.03 136.24-20 138.79-21.68 141.34-23.35 144.44-23.35L144.44-23.35Q148.24-23.35 150.56-20.73 152.89-18.1 153.29-14.25L153.29-14.25Q155.64-14.4 158.89-15.25L158.89-15.25Q159.29-15.35 159.59-15.35L159.59-15.35ZM143.19-5.05Q144.79-5.05 145.96-6.35 147.14-7.65 147.54-10.1L147.54-10.1Q145.99-11.15 145.16-12.85 144.34-14.55 144.34-16.45L144.34-16.45Q144.34-17.25 144.49-18.05L144.49-18.05 144.24-18.05Q142.24-18.05 140.91-16.13 139.59-14.2 139.59-10.7L139.59-10.7Q139.59-7.95 140.66-6.5 141.74-5.05 143.19-5.05L143.19-5.05ZM183.34-11.15Q183.99-11.15 184.36-10.55 184.74-9.95 184.74-8.9L184.74-8.9Q184.74-6.9 183.79-5.8L183.79-5.8Q181.64-3.15 179.16-1.45 176.69 0.25 173.54 0.25L173.54 0.25Q170.89 0.25 169.24-1.65L169.24-1.65Q166.39 0.2 163.29 0.25L163.29 0.25Q162.64 9.9 160.34 16.38 158.04 22.85 153.59 22.85L153.59 22.85Q150.89 22.85 149.59 20.9 148.29 18.95 148.29 15.5L148.29 15.5Q148.29 10.6 150.54 4.08 152.79-2.45 157.49-10.3L157.49-10.3Q157.49-17.6 157.39-20.45L157.39-20.45Q157.34-21.9 158.54-22.75 159.74-23.6 161.54-23.6L161.54-23.6Q162.59-23.6 163.06-23.18 163.54-22.75 163.59-21.5L163.59-21.5Q163.59-20.25 163.64-19.65L163.64-19.65Q165.24-21.65 166.79-22.53 168.34-23.4 170.09-23.4L170.09-23.4Q172.89-23.4 174.66-21.15 176.44-18.9 176.44-15.25L176.44-15.25Q176.44-12.6 175.59-10.1 174.74-7.6 173.24-5.55L173.24-5.55Q174.29-5.25 174.99-5.25L174.99-5.25Q176.64-5.25 178.14-6.45 179.64-7.65 181.99-10.45L181.99-10.45Q182.59-11.15 183.34-11.15L183.34-11.15ZM163.54-4.55Q165.34-4.95 166.86-6.53 168.39-8.1 169.29-10.43 170.19-12.75 170.19-15.3L170.19-15.3Q170.19-16.8 169.59-17.57 168.99-18.35 167.99-18.35L167.99-18.35Q166.19-18.35 163.64-14.55L163.64-14.55Q163.59-12.35 163.59-8.1L163.59-8.1Q163.59-5.8 163.54-4.55L163.54-4.55ZM153.99 17.95Q155.34 17.95 156.24 12.08 157.14 6.2 157.39-2.55L157.39-2.55Q155.24 2.45 153.99 7 152.74 11.55 152.74 14.65L152.74 14.65Q152.74 16.25 153.11 17.1 153.49 17.95 153.99 17.95L153.99 17.95Z" opacity="1" transform="matrix(1,0,0,1,0,0)" fill="#ffffff" class="undefined-text-0" data-fill-palette-color="primary" id="text-0"></path></svg></g></svg></g></svg></g></svg></g></svg></g></svg></g></svg></g><g><path d="M0 123.6c0-68.262 55.338-123.6 123.6-123.6 47.303 0 88.4 26.573 109.177 65.606h-4.818c-20.388-36.609-59.481-61.374-104.359-61.375-65.926 0-119.369 53.443-119.369 119.369 0 65.926 53.443 119.369 119.369 119.369 44.877 0 83.971-24.765 104.359-61.375l4.818 0c-20.777 39.033-61.874 65.606-109.177 65.606-68.262 0-123.6-55.338-123.6-123.6z" fill="#ffffff" stroke="transparent" data-fill-palette-color="tertiary"></path></g></svg></g><defs></defs></svg><rect width="395.52" height="247.2" fill="none" stroke="none" visibility="hidden"></rect></g></svg></g></svg>